<?xml version="1.0" standalone="no"?>
<!DOCTYPE svg PUBLIC "-//W3C//DTD SVG 20010904//EN"
 "http://www.w3.org/TR/2001/REC-SVG-20010904/DTD/svg10.dtd">
<svg version="1.0" xmlns="http://www.w3.org/2000/svg"
 width="700.000000pt" height="700.000000pt" viewBox="0 0 700.000000 700.000000"
 preserveAspectRatio="xMidYMid meet">
<metadata>
Created by potrace 1.14, written by Peter Selinger 2001-2017
</metadata>
<g transform="translate(0.000000,700.000000) scale(0.100000,-0.100000)"
fill="#000000" stroke="none">
<path d="M3299 6996 c-2 -2 -40 -6 -84 -10 -523 -38 -1070 -216 -1535 -499
-141 -85 -360 -243 -431 -309 -14 -13 -39 -34 -55 -47 -84 -66 -308 -299 -415
-431 -385 -479 -639 -1051 -733 -1652 -15 -93 -21 -137 -35 -278 -9 -82 -7
-530 3 -595 3 -22 10 -74 15 -115 6 -41 13 -93 16 -115 6 -39 43 -225 51 -255
2 -8 8 -33 14 -55 6 -22 13 -50 16 -63 2 -13 24 -82 48 -155 319 -971 1037
-1751 1976 -2145 135 -56 402 -145 500 -166 14 -3 43 -10 65 -15 82 -19 258
-51 311 -56 30 -4 65 -8 77 -11 134 -27 637 -25 827 2 328 48 672 136 865 223
33 15 63 28 67 30 28 8 101 42 213 98 476 240 896 589 1211 1008 61 81 194
273 194 279 0 2 18 34 40 70 95 156 222 436 297 651 22 65 94 333 108 401 54
274 70 437 70 704 0 293 -18 478 -71 725 -2 11 -6 29 -8 40 -11 52 -30 127
-53 202 -13 45 -26 90 -28 100 -29 138 -207 531 -338 748 -86 142 -261 387
-320 447 -12 13 -35 39 -51 58 -130 159 -410 410 -626 562 -176 123 -461 278
-670 363 -233 95 -558 187 -775 219 -22 3 -51 8 -65 11 -14 2 -50 7 -80 10
-30 3 -68 8 -85 10 -35 6 -521 16 -526 11z"/>
</g>
</svg>
